<svg width="194" height="50" viewBox="0 0 194 50" fill="none" xmlns="http://www.w3.org/2000/svg">
<g clip-path="url(#clip0_1_371)">
<path d="M17.5565 16.9785L21.9173 24.5839L17.5565 32.1894H8.84083L4.49197 24.5839L8.85277 16.9785H17.5684H17.5565ZM19.8099 13.0752H6.59933L0 24.587L6.59933 36.0987H19.798L26.3973 24.587L19.798 13.0752H19.8099Z" fill="#FFC147"/>
<path d="M40.8359 30.5171L45.1967 38.1226L40.8359 45.728H32.1203L27.7595 38.1226L32.1203 30.5171H40.8359ZM43.0775 26.6138H29.8788L23.2705 38.1226L29.8699 49.6372H43.0684L49.6678 38.1226L43.0775 26.6108V26.6138Z" fill="#794EFF"/>
<path d="M40.5585 3.92039L44.6424 11.0454L40.5585 18.1705H32.3914L28.3078 11.0454L32.3914 3.92039H40.5585ZM42.8001 0.0170898H30.1529L23.8308 11.0514L30.1529 22.0858H42.8031L49.1252 11.0514L42.8031 0.0170898H42.8001Z" fill="#97E747"/>
<path d="M81.8119 16.5612C82.871 17.0463 83.7633 17.8374 84.3752 18.8341C85.0887 19.9151 85.4453 21.3653 85.4453 23.1848V33.2464H80.0235V23.1698C80.0235 22.2931 79.77 21.6535 79.2695 21.2482C78.7606 20.8444 78.1282 20.632 77.481 20.6477C77.1593 20.6387 76.8399 20.7038 76.547 20.838C76.2541 20.9723 75.9953 21.1721 75.7907 21.4224C75.3527 21.9418 75.1379 22.7285 75.1379 23.7853V33.2464H69.743V23.1698C69.743 22.2931 69.4914 21.6525 68.989 21.2482C68.4805 20.8439 67.8477 20.6315 67.2005 20.6477C66.88 20.638 66.5617 20.7012 66.2692 20.8328C65.9763 20.9643 65.7171 21.1607 65.5102 21.4073C65.0753 21.9117 64.8574 22.7044 64.8574 23.7853V33.2464H59.4625V16.3931H64.8544V17.2938C65.8971 16.4103 67.2149 15.9235 68.5775 15.9187C69.5721 15.9236 70.5561 16.1277 71.4716 16.5192C72.4624 16.9371 73.3078 17.6414 73.9011 18.5429C74.5043 17.7758 75.2493 17.1334 76.095 16.6513C76.9339 16.1632 77.8861 15.9074 78.8549 15.9097C79.8742 15.9223 80.8806 16.144 81.8119 16.5612Z" fill="#794EFF"/>
<path d="M91.1387 32.5649C89.7985 31.7887 88.6841 30.6715 87.9074 29.3251C87.1284 27.967 86.718 26.426 86.718 24.8573C86.718 23.2887 87.1284 21.7477 87.9074 20.3896C88.6849 19.0438 89.7993 17.9268 91.1387 17.1498C92.488 16.3668 94.018 15.9546 95.5753 15.9546C97.1326 15.9546 98.6626 16.3668 100.012 17.1498C101.351 17.9276 102.465 19.0444 103.243 20.3896C104.02 21.7484 104.43 23.2891 104.43 24.8573C104.43 26.4255 104.02 27.9662 103.243 29.3251C102.466 30.6709 101.352 31.788 100.012 32.5649C98.6634 33.3497 97.133 33.7629 95.5753 33.7629C94.0176 33.7629 92.4876 33.3497 91.1387 32.5649ZM98.0181 27.3194C98.3417 26.9976 98.599 26.6143 98.7744 26.1917C98.9499 25.769 99.04 25.3155 99.04 24.8573C99.04 24.3992 98.9499 23.9457 98.7744 23.523C98.599 23.1004 98.3417 22.717 98.0181 22.3952C97.6976 22.0676 97.3145 21.809 96.8916 21.635C96.4688 21.4611 96.0156 21.3755 95.559 21.3834C95.1062 21.3834 94.6576 21.4733 94.2393 21.6478C93.821 21.8224 93.4406 22.0783 93.1204 22.4009C92.8002 22.7235 92.546 23.1064 92.3728 23.5279C92.1996 23.9494 92.1102 24.4011 92.1102 24.8573C92.1102 25.3135 92.1996 25.7653 92.3728 26.1868C92.546 26.6083 92.8002 26.9912 93.1204 27.3138C93.4406 27.6363 93.821 27.8923 94.2393 28.0668C94.6576 28.2414 95.1062 28.3313 95.559 28.3313C96.0156 28.3392 96.4688 28.2536 96.8916 28.0796C97.3145 27.9057 97.6976 27.647 98.0181 27.3194Z" fill="#794EFF"/>
<path d="M111.396 28.1121C111.662 28.2814 111.976 28.3584 112.29 28.3313C112.424 28.3313 112.758 28.3103 113.294 28.2653V33.2465C112.374 33.3824 111.446 33.4616 110.516 33.4837C108.909 33.4837 107.709 33.0623 106.916 32.2196C106.123 31.3769 105.725 29.8756 105.724 27.7158V9.64648H111.112V27.3195C111.098 27.4645 111.115 27.6111 111.164 27.7484C111.213 27.8856 111.292 28.01 111.396 28.1121Z" fill="#794EFF"/>
<path d="M127.334 17.1018C128.614 17.8725 129.661 18.9802 130.362 20.3055C131.101 21.6993 131.475 23.2596 131.45 24.8394C131.466 25.4732 131.41 26.1068 131.283 26.728H119.497C120.233 28.3294 121.539 29.13 123.417 29.13C124.019 29.1298 124.616 29.0105 125.172 28.7787C125.703 28.5706 126.17 28.2271 126.529 27.7819L130.615 30.211C129.834 31.3373 128.779 32.2429 127.551 32.8412C126.226 33.4633 124.777 33.7715 123.316 33.7419C121.631 33.7775 119.966 33.3774 118.478 32.58C117.121 31.8422 116.001 30.7311 115.247 29.3762C114.48 27.99 114.088 26.4258 114.108 24.8394C114.088 23.2552 114.474 21.6924 115.229 20.3026C115.96 18.9591 117.051 17.8492 118.376 17.0988C119.782 16.3091 121.37 15.9072 122.979 15.9339C124.51 15.9082 126.018 16.3127 127.334 17.1018ZM126.404 22.5634C126.333 22.2471 126.19 21.9515 125.987 21.6999C125.784 21.4483 125.525 21.2475 125.232 21.1132C124.487 20.7695 123.676 20.5974 122.856 20.6094C122.037 20.6213 121.231 20.817 120.496 21.1823C119.792 21.5636 119.429 22.026 119.408 22.5634H126.404Z" fill="#794EFF"/>
<path d="M148.759 29.9433C147.954 31.1167 146.881 32.0775 145.629 32.7446C144.303 33.4396 142.823 33.7867 141.328 33.7542C139.833 33.7217 138.37 33.3104 137.075 32.5585C135.739 31.7833 134.629 30.6681 133.855 29.3248C133.076 27.9665 132.666 26.4256 132.666 24.857C132.666 23.2883 133.076 21.7474 133.855 20.3892C134.632 19.0428 135.746 17.9256 137.086 17.1494C138.437 16.3533 139.975 15.9384 141.54 15.9484C142.958 15.9401 144.355 16.2878 145.605 16.9603C146.845 17.6147 147.918 18.55 148.738 19.6926L144.267 22.6951C143.462 21.8184 142.558 21.38 141.554 21.38C141.097 21.3722 140.644 21.4579 140.221 21.6318C139.797 21.8057 139.414 22.0643 139.093 22.3919C138.769 22.7136 138.512 23.097 138.336 23.5196C138.161 23.9423 138.07 24.3958 138.07 24.854C138.07 25.3121 138.161 25.7656 138.336 26.1883C138.512 26.6109 138.769 26.9943 139.093 27.3161C139.414 27.6436 139.797 27.9022 140.221 28.0761C140.644 28.25 141.097 28.3357 141.554 28.3279C142.534 28.3279 143.438 27.8785 144.267 26.9798L148.759 29.9433Z" fill="#794EFF"/>
<path d="M160.849 16.3931H166.241V33.2463H160.849V32.3036C159.806 33.2057 158.481 33.7095 157.106 33.7268C156.085 33.7188 155.077 33.5012 154.142 33.0872C153.085 32.6058 152.194 31.8188 151.582 30.8263C150.867 29.7494 150.509 28.2992 150.509 26.4756V16.3931H155.934V26.4756C155.934 27.3524 156.185 27.9939 156.688 28.4002C157.197 28.8038 157.829 29.0162 158.476 29.0007C158.802 29.0131 159.127 28.9512 159.426 28.8197C159.725 28.6881 159.99 28.4904 160.202 28.2411C160.638 27.7367 160.855 26.944 160.855 25.8631L160.849 16.3931Z" fill="#794EFF"/>
<path d="M173.94 28.1121C174.207 28.2814 174.521 28.3584 174.835 28.3313C174.969 28.3313 175.306 28.3103 175.839 28.2653V33.2465C174.919 33.3824 173.991 33.4616 173.061 33.4837C171.454 33.4837 170.253 33.0623 169.461 32.2196C168.667 31.3769 168.27 29.8756 168.268 27.7158V9.64648H173.657V27.3195C173.642 27.4645 173.66 27.6111 173.709 27.7484C173.758 27.8856 173.837 28.01 173.94 28.1121Z" fill="#794EFF"/>
<path d="M189.893 17.1015C191.173 17.8728 192.221 18.9803 192.925 20.3053C193.657 21.7009 194.026 23.2607 193.998 24.8391C194.013 25.4731 193.956 26.1067 193.828 26.7277H182.042C182.779 28.329 184.086 29.1297 185.962 29.1297C186.567 29.1182 187.163 28.9866 187.717 28.7424C188.247 28.5343 188.715 28.1907 189.073 27.7455L193.172 30.1866C192.391 31.3129 191.336 32.2185 190.108 32.8169C188.783 33.439 187.334 33.7471 185.872 33.7176C184.187 33.7532 182.522 33.3531 181.035 32.5556C179.678 31.8179 178.557 30.7068 177.803 29.3519C177.037 27.9739 176.64 26.4185 176.653 24.8391C176.632 23.2548 177.019 21.6921 177.774 20.3022C178.505 18.9588 179.595 17.8489 180.921 17.0985C182.328 16.3084 183.916 15.9065 185.527 15.9335C187.062 15.9051 188.574 16.3096 189.893 17.1015ZM188.954 22.5632C188.883 22.2467 188.741 21.9512 188.538 21.6996C188.334 21.448 188.076 21.2472 187.783 21.1129C187.038 20.7693 186.226 20.5971 185.407 20.6091C184.588 20.621 183.781 20.8167 183.047 21.182C182.343 21.5633 181.98 22.0257 181.959 22.5632H188.954Z" fill="#794EFF"/>
</g>
<defs>
<clipPath id="clip0_1_371">
<rect width="194" height="50" fill="white"/>
</clipPath>
</defs>
</svg>
