<svg width="58" height="57" viewBox="0 0 58 57" fill="none" xmlns="http://www.w3.org/2000/svg">
<g clip-path="url(#clip0_2_94)">
<path d="M51.931 5.26239L48.0862 13.7477C47.9099 14.1366 47.8187 14.5588 47.8187 14.9858V52.8346C47.8187 53.9392 48.7142 54.8346 49.8187 54.8346H54.9541C56.0587 54.8346 56.9541 53.9392 56.9541 52.8346V14.9858C56.9541 14.5588 56.8629 14.1366 56.6867 13.7477L52.8418 5.26239C52.6644 4.87087 52.1084 4.87087 51.931 5.26239Z" stroke="#D1B06B" stroke-width="2"/>
<path d="M47.8187 14.9858H52.9574H56.9541" stroke="#D1B06B" stroke-width="2"/>
<path d="M33.6711 25.0393H8.00094C7.35651 25.0393 6.83411 25.5617 6.83411 26.2061C6.83411 26.8506 7.35651 27.373 8.00094 27.373H33.6711C34.3155 27.373 34.8379 26.8506 34.8379 26.2061C34.8379 25.5617 34.3155 25.0393 33.6711 25.0393Z" fill="#D1B06B"/>
<path d="M16.8355 8.87061H9.66772C8.8393 8.87061 8.16772 9.54218 8.16772 10.3706V15.2047C8.16772 16.0332 8.8393 16.7047 9.66772 16.7047H16.8355C17.664 16.7047 18.3355 16.0332 18.3355 15.2047V10.3706C18.3355 9.54218 17.664 8.87061 16.8355 8.87061Z" stroke="#D1B06B" stroke-width="2"/>
<path d="M33.6711 36.7078H8.00094C7.35651 36.7078 6.83411 37.2302 6.83411 37.8746C6.83411 38.519 7.35651 39.0414 8.00094 39.0414H33.6711C34.3155 39.0414 34.8379 38.519 34.8379 37.8746C34.8379 37.2302 34.3155 36.7078 33.6711 36.7078Z" fill="#D1B06B"/>
<path d="M23.1697 42.5417H8.00094C7.35651 42.5417 6.83411 43.0642 6.83411 43.7086C6.83411 44.353 7.35651 44.8754 8.00094 44.8754H23.1697C23.8141 44.8754 24.3365 44.353 24.3365 43.7086C24.3365 43.0642 23.8141 42.5417 23.1697 42.5417Z" fill="#D1B06B"/>
<path d="M33.6711 30.8735H8.00094C7.35651 30.8735 6.83411 31.3959 6.83411 32.0404C6.83411 32.6848 7.35651 33.2072 8.00094 33.2072H33.6711C34.3155 33.2072 34.8379 32.6848 34.8379 32.0404C34.8379 31.3959 34.3155 30.8735 33.6711 30.8735Z" fill="#D1B06B"/>
<path d="M47.8187 49.7256H56.9541" stroke="#D1B06B" stroke-width="2"/>
<path d="M1 8.70288V48.0877C1 51.9537 4.13401 55.0877 8 55.0877H34.2603C38.1263 55.0877 41.2603 51.9537 41.2603 48.0877V16.4311C41.2603 14.4436 40.4154 12.5498 38.9365 11.2221L30.3278 3.49392C29.0432 2.34074 27.3778 1.70288 25.6516 1.70288H8C4.13401 1.70288 1 4.83689 1 8.70288Z" stroke="#D1B06B" stroke-width="2"/>
<path d="M25.9808 1.91992V11.5916C25.9808 13.8008 27.7717 15.5916 29.9808 15.5916H40.2902" stroke="#D1B06B" stroke-width="2" stroke-linecap="round"/>
</g>
<defs>
<clipPath id="clip0_2_94">
<rect width="58" height="56" fill="white" transform="translate(0 0.703125)"/>
</clipPath>
</defs>
</svg>
