<svg width="81" height="60" viewBox="0 0 81 60" fill="none" xmlns="http://www.w3.org/2000/svg">
<path d="M0 5.70313C0 2.9417 2.23858 0.703125 5 0.703125H76C78.7614 0.703125 81 2.9417 81 5.70313V54.7031C81 57.4645 78.7614 59.7031 76 59.7031H5C2.23858 59.7031 0 57.4645 0 54.7031V5.70313Z" fill="#161D27"/>
<path d="M22.41 41.0031C21.05 41.0031 19.81 40.7531 18.69 40.2531C17.59 39.7331 16.66 38.9831 15.9 38.0031L17.82 36.0831C18.28 36.7831 18.91 37.3431 19.71 37.7631C20.51 38.1631 21.4 38.3631 22.38 38.3631C23.3 38.3631 24.09 38.1931 24.75 37.8531C25.43 37.4931 25.96 36.9931 26.34 36.3531C26.74 35.7131 26.94 34.9731 26.94 34.1331C26.94 33.2731 26.74 32.5331 26.34 31.9131C25.96 31.2731 25.42 30.7831 24.72 30.4431C24.02 30.1031 23.19 29.9331 22.23 29.9331C21.87 29.9331 21.51 29.9631 21.15 30.0231C20.79 30.0631 20.44 30.1331 20.1 30.2331L21.3 28.6131C21.68 28.4331 22.09 28.2931 22.53 28.1931C22.97 28.0931 23.41 28.0431 23.85 28.0431C24.97 28.0431 25.97 28.3031 26.85 28.8231C27.75 29.3431 28.46 30.0731 28.98 31.0131C29.52 31.9531 29.79 33.0431 29.79 34.2831C29.79 35.6031 29.47 36.7731 28.83 37.7931C28.21 38.7931 27.35 39.5831 26.25 40.1631C25.15 40.7231 23.87 41.0031 22.41 41.0031ZM20.1 30.2331V28.5231L26.19 21.5931L29.55 21.5631L23.28 28.6731L20.1 30.2331ZM16.89 22.4031V19.8831H29.55V21.5631L27.09 22.4031H16.89ZM38.9826 41.0031C37.5626 41.0031 36.2926 40.7531 35.1726 40.2531C34.0726 39.7331 33.1426 38.9831 32.3826 38.0031L34.3026 36.0831C34.7626 36.7831 35.3926 37.3431 36.1926 37.7631C37.0126 38.1631 37.9226 38.3631 38.9226 38.3631C39.8626 38.3631 40.6826 38.1831 41.3826 37.8231C42.1026 37.4631 42.6626 36.9631 43.0626 36.3231C43.4826 35.6631 43.6926 34.8831 43.6926 33.9831C43.6926 33.0631 43.4926 32.2831 43.0926 31.6431C42.6926 31.0031 42.1526 30.5231 41.4726 30.2031C40.8126 29.8631 40.0826 29.6931 39.2826 29.6931C38.4626 29.6931 37.7126 29.7931 37.0326 29.9931C36.3726 30.1931 35.7426 30.5331 35.1426 31.0131L35.1726 29.2131C35.5126 28.7931 35.9026 28.4531 36.3426 28.1931C36.7826 27.9331 37.2826 27.7331 37.8426 27.5931C38.4026 27.4531 39.0526 27.3831 39.7926 27.3831C41.2326 27.3831 42.4526 27.6831 43.4526 28.2831C44.4526 28.8831 45.2126 29.6931 45.7326 30.7131C46.2726 31.7331 46.5426 32.8731 46.5426 34.1331C46.5426 35.4531 46.2126 36.6331 45.5526 37.6731C44.9126 38.7131 44.0226 39.5331 42.8826 40.1331C41.7426 40.7131 40.4426 41.0031 38.9826 41.0031ZM35.1426 31.0131L33.6126 29.4831L34.5426 19.8831H37.1226L36.0726 29.7531L35.1426 31.0131ZM35.1126 22.4031L34.5426 19.8831H45.4926V22.4031H35.1126ZM49.943 31.8831V29.4531H62.663V31.8831H49.943ZM55.073 23.9931H57.563V37.3431H55.073V23.9931Z" fill="white"/>
</svg>
