<svg width="20" height="20" viewBox="0 0 20 20" fill="none" xmlns="http://www.w3.org/2000/svg">
<g clip-path="url(#clip0_2_567)">
<path d="M13.8655 2.39882C14.9461 2.40192 15.9816 2.8167 16.7458 3.55255C17.5099 4.2884 17.9407 5.28553 17.9439 6.32618V14.1801C17.9407 15.2207 17.5099 16.2178 16.7458 16.9537C15.9816 17.6895 14.9461 18.1043 13.8655 18.1074H5.70952C4.62885 18.1043 3.59336 17.6895 2.82921 16.9537C2.06506 16.2178 1.63433 15.2207 1.6311 14.1801V6.32618C1.63433 5.28553 2.06506 4.2884 2.82921 3.55255C3.59336 2.8167 4.62885 2.40192 5.70952 2.39882H13.8655ZM13.8655 0.828125H5.70952C2.56922 0.828125 0 3.30219 0 6.32618V14.1801C0 17.2041 2.56922 19.6781 5.70952 19.6781H13.8655C17.0058 19.6781 19.575 17.2041 19.575 14.1801V6.32618C19.575 3.30219 17.0058 0.828125 13.8655 0.828125Z" fill="#1F2732"/>
<path d="M15.089 6.32695C14.847 6.32695 14.6105 6.25785 14.4093 6.1284C14.2081 5.99895 14.0513 5.81495 13.9587 5.59967C13.8661 5.3844 13.8419 5.14752 13.8891 4.91898C13.9363 4.69045 14.0528 4.48053 14.2239 4.31576C14.395 4.151 14.613 4.0388 14.8503 3.99334C15.0876 3.94788 15.3336 3.97121 15.5572 4.06038C15.7807 4.14955 15.9718 4.30055 16.1063 4.49429C16.2407 4.68804 16.3124 4.91581 16.3124 5.14882C16.3128 5.30363 16.2814 5.45698 16.22 5.60007C16.1587 5.74315 16.0686 5.87316 15.9549 5.98263C15.8412 6.09209 15.7062 6.17886 15.5576 6.23795C15.409 6.29704 15.2498 6.32728 15.089 6.32695ZM9.78755 7.11209C10.4329 7.11209 11.0637 7.29635 11.6002 7.64158C12.1368 7.9868 12.5549 8.47749 12.8019 9.05158C13.0488 9.62567 13.1134 10.2573 12.9875 10.8668C12.8617 11.4762 12.5509 12.0361 12.0946 12.4754C11.6383 12.9148 11.057 13.2141 10.4241 13.3353C9.79117 13.4565 9.13516 13.3943 8.53899 13.1565C7.94282 12.9187 7.43326 12.516 7.07476 11.9993C6.71625 11.4827 6.5249 10.8752 6.5249 10.2539C6.52583 9.42091 6.86987 8.62229 7.48153 8.03328C8.0932 7.44427 8.92253 7.11298 9.78755 7.11209ZM9.78755 5.54139C8.81966 5.54139 7.8735 5.81778 7.06873 6.33559C6.26395 6.85341 5.63671 7.5894 5.26631 8.4505C4.89592 9.31159 4.79901 10.2591 4.98783 11.1732C5.17666 12.0874 5.64274 12.927 6.32715 13.5861C7.01155 14.2451 7.88353 14.694 8.83283 14.8758C9.78212 15.0576 10.7661 14.9643 11.6603 14.6076C12.5546 14.251 13.3189 13.6469 13.8566 12.872C14.3943 12.097 14.6813 11.1859 14.6813 10.2539C14.6813 9.00406 14.1657 7.80542 13.248 6.92165C12.3302 6.03789 11.0855 5.54139 9.78755 5.54139Z" fill="#1F2732"/>
</g>
<defs>
<clipPath id="clip0_2_567">
<rect width="20" height="20" fill="white"/>
</clipPath>
</defs>
</svg>
