<svg width="53" height="56" viewBox="0 0 53 56" fill="none" xmlns="http://www.w3.org/2000/svg">
<g clip-path="url(#clip0_2_211)">
<path d="M11.7778 53.8554C17.4541 53.8554 22.0556 49.2539 22.0556 43.5776C22.0556 37.9013 17.4541 33.2998 11.7778 33.2998C6.10153 33.2998 1.5 37.9013 1.5 43.5776C1.5 49.2539 6.10153 53.8554 11.7778 53.8554Z" stroke="#D1B06B" stroke-width="3"/>
<path d="M41.2221 30.3002C46.8984 30.3002 51.4999 25.6987 51.4999 20.0224C51.4999 14.3462 46.8984 9.74463 41.2221 9.74463C35.5459 9.74463 30.9443 14.3462 30.9443 20.0224C30.9443 25.6987 35.5459 30.3002 41.2221 30.3002Z" stroke="#D1B06B" stroke-width="3"/>
<path d="M14.2414 5.94505L10.709 9.39363C9.4785 10.595 9.45484 12.5664 10.6562 13.7969C11.8575 15.0275 13.8289 15.0511 15.0595 13.8498L18.5919 10.4012C19.8224 9.19987 19.8461 7.22845 18.6447 5.99791C17.4434 4.76738 15.472 4.74371 14.2414 5.94505Z" stroke="#D1B06B" stroke-width="2"/>
<path d="M30.9426 1.92129L26.0319 1.41593C24.3212 1.23988 22.7917 2.48395 22.6157 4.19464C22.4396 5.90533 23.6837 7.43482 25.3944 7.61087L30.3051 8.11623C32.0158 8.29228 33.5453 7.04821 33.7213 5.33752C33.8974 3.62683 32.6533 2.09734 30.9426 1.92129Z" stroke="#D1B06B" stroke-width="2"/>
<path d="M5.31704 20.7219L4.2338 25.5382C3.85645 27.216 4.91067 28.8821 6.58848 29.2594C8.26629 29.6368 9.93233 28.5826 10.3097 26.9048L11.3929 22.0884C11.7703 20.4106 10.7161 18.7446 9.03825 18.3672C7.36044 17.9899 5.6944 19.0441 5.31704 20.7219Z" stroke="#D1B06B" stroke-width="2"/>
<path d="M12.3032 13.0908L9.55762 19.497" stroke="#D1B06B" stroke-width="2" stroke-linecap="round"/>
<path d="M8.21765 27.9111L9.06663 33.0049" stroke="#D1B06B" stroke-width="2" stroke-linecap="round"/>
<path d="M24.0466 4.76953L17.7252 6.57565" stroke="#D1B06B" stroke-width="2" stroke-linecap="round"/>
<path d="M35.1057 10.4438L31.6439 6.1167" stroke="#D1B06B" stroke-width="2" stroke-linecap="round"/>
</g>
<defs>
<clipPath id="clip0_2_211">
<rect width="53" height="56" fill="white"/>
</clipPath>
</defs>
</svg>
