<svg width="53" height="60" viewBox="0 0 53 60" fill="none" xmlns="http://www.w3.org/2000/svg">
<g clip-path="url(#clip0_2_165)">
<path d="M6.7373 21.0448C6.7373 10.1639 15.5853 1.34326 26.5 1.34326C37.4147 1.34326 46.2627 10.1639 46.2627 21.0448V50.597H6.7373V21.0448Z" stroke="#D1B06B" stroke-width="3"/>
<path d="M2.00521 51.2529C1.58157 51.6752 1.44533 52.1771 1.39235 52.5699C1.34713 52.9052 1.34728 53.3025 1.34743 53.6698C1.34744 53.6905 1.34745 53.7111 1.34745 53.7315V55.5226C1.34745 55.543 1.34744 55.5636 1.34743 55.5843C1.34728 55.9516 1.34713 56.3489 1.39235 56.6841C1.44533 57.077 1.58157 57.5789 2.00521 58.0012C2.42885 58.4235 2.93225 58.5593 3.32629 58.6121C3.66264 58.6572 4.06112 58.6571 4.42962 58.6569C4.45035 58.6569 4.47099 58.6569 4.49151 58.6569H48.5085H48.5704C48.9388 58.6571 49.3373 58.6572 49.6737 58.6121C50.0677 58.5593 50.5711 58.4235 50.9948 58.0012C51.4184 57.5789 51.5546 57.077 51.6076 56.6841C51.6529 56.3489 51.6527 55.9516 51.6525 55.5843V55.5226V53.7315V53.6698C51.6527 53.3025 51.6529 52.9052 51.6076 52.5699C51.5546 52.1771 51.4184 51.6752 50.9948 51.2529C50.5711 50.8306 50.0677 50.6948 49.6737 50.642C49.3373 50.5968 48.9388 50.597 48.5704 50.5972H48.5085H4.49151C4.47099 50.5972 4.45035 50.5972 4.42963 50.5972C4.06112 50.597 3.66264 50.5968 3.32629 50.642C2.93225 50.6948 2.42885 50.8306 2.00521 51.2529Z" stroke="#D1B06B" stroke-width="3"/>
<path d="M17.6382 27.7173V26.271H20.3412C20.8808 26.271 21.2982 26.134 21.5934 25.8599C21.8988 25.5758 22.0516 25.185 22.0516 24.6877C22.0516 24.2411 21.904 23.8656 21.6087 23.5611C21.3134 23.2567 20.8961 23.1044 20.3565 23.1044H17.6382V21.582H20.4328C21.1047 21.582 21.6952 21.719 22.2043 21.9931C22.7133 22.257 23.1053 22.6224 23.3802 23.0892C23.6652 23.5459 23.8077 24.0686 23.8077 24.6573C23.8077 25.2763 23.6652 25.8143 23.3802 26.271C23.1053 26.7277 22.7133 27.083 22.2043 27.3367C21.6952 27.5904 21.1047 27.7173 20.4328 27.7173H17.6382ZM16.4318 32.2387V21.582H18.1879V32.2387H16.4318ZM22.2959 32.2387L18.5545 27.6107L20.1885 27.017L24.5102 32.2387H22.2959ZM25.8122 32.2387V21.582H27.5684V32.2387H25.8122ZM31.0899 28.2196V26.6973H33.7624C34.1289 26.6973 34.4496 26.6262 34.7245 26.4841C35.0095 26.3319 35.2336 26.1239 35.3964 25.8599C35.5593 25.5859 35.6408 25.2662 35.6408 24.9008C35.6408 24.5355 35.5593 24.2209 35.3964 23.957C35.2336 23.6829 35.0095 23.4749 34.7245 23.3328C34.4496 23.1805 34.1289 23.1044 33.7624 23.1044H31.0899V21.582H33.854C34.526 21.582 35.1267 21.719 35.656 21.9931C36.1956 22.2671 36.6181 22.6528 36.9235 23.1501C37.2391 23.6474 37.3969 24.231 37.3969 24.9008C37.3969 25.5707 37.2391 26.1543 36.9235 26.6516C36.6181 27.1489 36.1956 27.5346 35.656 27.8086C35.1267 28.0826 34.526 28.2196 33.854 28.2196H31.0899ZM29.8835 32.2387V21.582H31.6397V32.2387H29.8835Z" fill="#D1B06B"/>
<path d="M16.3042 36.582H36.6957" stroke="#D1B06B" stroke-width="2.3" stroke-linecap="round"/>
<path d="M11.8127 41.9551H41.1873" stroke="#D1B06B" stroke-width="2.3" stroke-linecap="round"/>
</g>
<defs>
<clipPath id="clip0_2_165">
<rect width="53" height="60" fill="white"/>
</clipPath>
</defs>
</svg>
