<svg width="53" height="38" viewBox="0 0 53 38" fill="none" xmlns="http://www.w3.org/2000/svg">
<g clip-path="url(#clip0_2_182)">
<path d="M48.7135 32.358C50.3533 32.358 51.5488 30.683 51.1595 28.9518C49.7539 22.7144 44.57 18.0825 38.3912 18.0825C32.2123 18.0825 27.0253 22.7144 25.6228 28.9551C25.2335 30.6863 26.4291 32.358 28.0689 32.358H48.7135Z" fill="#1F2732" stroke="#D1B06B" stroke-width="3" stroke-miterlimit="10"/>
<path d="M24.9312 32.358C26.571 32.358 27.7666 30.683 27.3772 28.9518C25.9717 22.7144 20.7877 18.0825 14.6089 18.0825C8.43011 18.0825 3.24309 22.7144 1.84062 28.9551C1.45121 30.6863 2.64682 32.358 4.28658 32.358H24.9312Z" fill="#1F2732" stroke="#D1B06B" stroke-width="3" stroke-miterlimit="10"/>
<path d="M34.1463 36.1645C35.361 36.1645 36.2466 34.9362 35.9581 33.6666C34.917 29.0925 31.0771 25.6958 26.5001 25.6958C21.9232 25.6958 18.081 29.0925 17.0421 33.6691C16.7537 34.9385 17.6393 36.1645 18.854 36.1645H34.1463Z" fill="#1F2732" stroke="#D1B06B" stroke-width="3" stroke-miterlimit="10"/>
<path d="M44.2007 7.61369C44.2007 11.0865 41.3866 13.9017 37.9154 13.9017C34.4442 13.9017 31.6301 11.0865 31.6301 7.61369C31.6301 4.14093 34.4442 1.32568 37.9154 1.32568C41.3866 1.32568 44.2007 4.14093 44.2007 7.61369Z" stroke="#D1B06B" stroke-width="3" stroke-miterlimit="10"/>
<path d="M21.3698 7.61369C21.3698 11.0865 18.5558 13.9017 15.0846 13.9017C11.6133 13.9017 8.79932 11.0865 8.79932 7.61369C8.79932 4.14093 11.6133 1.32568 15.0846 1.32568C18.5558 1.32568 21.3698 4.14093 21.3698 7.61369Z" stroke="#D1B06B" stroke-width="3" stroke-miterlimit="10"/>
<path d="M30.8828 18.0823C30.8828 20.5039 28.9206 22.467 26.5001 22.467C24.0796 22.467 22.1174 20.5039 22.1174 18.0823C22.1174 15.6609 24.0796 13.6978 26.5001 13.6978C28.9206 13.6978 30.8828 15.6609 30.8828 18.0823Z" stroke="#D1B06B" stroke-width="3" stroke-miterlimit="10"/>
</g>
<defs>
<clipPath id="clip0_2_182">
<rect width="53" height="38" fill="white"/>
</clipPath>
</defs>
</svg>
